<svg xmlns="http://www.w3.org/2000/svg" width="100%" viewBox="0 0 760 470" role="img" aria-labelledby="title desc">
  <title id="title">Riverside Park before and after redevelopment</title><desc id="desc">Side-by-side maps of the fictional park in 2010 and 2025.</desc><rect width="760" height="470" rx="18" fill="#fff"/><text x="380" y="38" text-anchor="middle" font-family="Arial" font-size="22" font-weight="700" fill="#102a2e">Riverside Park redevelopment</text>
  <g font-family="Arial" text-anchor="middle"><text x="200" y="72" font-size="18" font-weight="700">2010</text><text x="560" y="72" font-size="18" font-weight="700">2025</text></g>
  <g stroke="#456b70" stroke-width="2"><rect x="40" y="90" width="320" height="300" rx="14" fill="#dff2d2"/><rect x="400" y="90" width="320" height="300" rx="14" fill="#dff2d2"/></g>
  <g font-family="Arial" font-size="14" text-anchor="middle"><ellipse cx="205" cy="235" rx="62" ry="42" fill="#9fd7ee" stroke="#337d9e"/><text x="205" y="240">Pond</text><path d="M55 325H340" stroke="#d7b27a" stroke-width="18"/><text x="200" y="332">Straight path</text><rect x="290" y="105" width="55" height="82" fill="#c9ced2"/><text x="317" y="138">Car</text><text x="317" y="157">park</text><text x="105" y="160">Open grass</text><text x="245" y="365">River</text><path d="M40 380H360" stroke="#4aa6c4" stroke-width="14"/>
  <ellipse cx="560" cy="235" rx="62" ry="42" fill="#9fd7ee" stroke="#337d9e"/><text x="560" y="240">Pond</text><rect x="425" y="115" width="95" height="75" rx="8" fill="#f3c970"/><text x="472" y="150">Playground</text><rect x="630" y="112" width="65" height="55" rx="8" fill="#f2a66f"/><text x="662" y="145">Café</text><rect x="620" y="300" width="80" height="72" fill="#c9ced2"/><text x="660" y="330">Expanded</text><text x="660" y="348">car park</text><rect x="430" y="290" width="62" height="42" rx="6" fill="#ddd"/><text x="461" y="316">Toilets</text><rect x="430" y="105" width="260" height="245" rx="70" fill="none" stroke="#d7b27a" stroke-width="14"/><text x="560" y="362">Loop path</text><text x="560" y="385">River</text><path d="M400 380H720" stroke="#4aa6c4" stroke-width="14"/></g><text x="380" y="430" text-anchor="middle" font-family="Arial" font-size="15" fill="#48656a">The pond and river remained; facilities and paths were added or expanded.</text>
</svg>
